<svg xmlns="http://www.w3.org/2000/svg" version="1.1" xmlns:xlink="http://www.w3.org/1999/xlink" xmlns:svgjs="http://svgjs.dev/svgjs" width="1500" height="1500" viewBox="0 0 1500 1500"><rect width="1500" height="1500" fill="#ffffff"></rect><g transform="matrix(0.6666666666666666,0,0,0.6666666666666666,250.00000000000017,187.66666666666674)"><svg viewBox="0 0 320 360" data-background-color="#c8c8c8" preserveAspectRatio="xMidYMid meet" height="1687" width="1500" xmlns="http://www.w3.org/2000/svg" xmlns:xlink="http://www.w3.org/1999/xlink"><g id="tight-bounds" transform="matrix(1,0,0,1,0,0)"><svg viewBox="0 0 320 360" height="360" width="320"><g><svg></svg></g><g><svg viewBox="0 0 320 360" height="360" width="320"><g><path d="M20.961 227.22l3.726 4.658-1.863-6.056c-0.466-2.795-3.726 0.466-1.863 1.398M25.153 224.425c1.397 2.329 2.795 4.658 2.795 6.987 0 3.261 2.795 4.658 5.123 5.589-3.261-3.726-5.124-13.974-7.918-12.576M204.017 26.929c7.918 0 15.371-0.932 23.756 0.931 20.495 5.124 37.729 15.371 49.374 29.811l32.606 52.169c1.397 13.042 4.192 27.482 3.726 43.319 3.261 0 2.795-4.658 6.521-5.59-3.726 9.316-5.59 20.961-6.521 34.469-2.329-7.453 0-18.632 0.466-24.687-3.261 5.124-5.124 1.397-5.124-0.932 0.466-3.726-1.397-3.261-2.795-4.658-5.124-4.658-8.384-9.782-12.11-17.7 2.329-6.055 2.795-14.905-4.658-19.563-2.329-1.397-5.124-3.726-6.521-7.453-1.863-5.124-5.124-11.179-4.193-19.097 0.466-2.329-6.987 5.124-11.179 1.863-18.166-12.576-36.332-27.016-58.224-39.127-11.645 0-20.029-4.192-24.221-9.316-3.726-4.658-0.932-10.713 4.658-11.179 3.261 0 6.987-0.932 9.782 0.932 0.466-1.863 2.329-4.192 4.657-4.192M157.904 16.215l0.932 0.466c4.658 0.932 6.987 7.453 12.11 5.124 0 3.261 0.466 6.521-0.466 8.85-1.397 3.726-5.59 3.726-8.85 3.726-31.208-1.863-49.374 11.179-68.471 22.358-5.124 3.261-10.713 5.59-14.906 9.782-20.029 18.632-41.921 35.866-47.045 70.335l-4.192 38.195c-0.466 4.192-5.124 8.384-4.192 13.508l3.26 22.824c-3.261-3.261-5.124 0.932-4.192 2.795 0.466 1.397 2.329 6.055 5.124 1.863 3.726 6.987 7.453 20.495 12.576 26.55 15.837 18.632 36.332 35.4 53.101 52.169 4.192-0.932 7.453-0.932 8.384-3.727 1.397 2.795-1.397 5.59-3.726 6.056 7.453 4.658 15.837 8.85 27.016 9.781 14.44 0.932 27.948 3.261 40.524 6.522 6.521-1.863 13.042-2.795 20.029-3.261 2.329 0 3.726-3.726 6.521-4.658l0.466-4.658c2.795 4.192 2.329-1.397 0.466-4.192 3.261 2.795 4.192 5.124 5.589 6.987 0-1.397 3.726-6.521 3.727-0.466l0.931-6.055c1.397-0.932 1.863 5.124 3.261 0.931 1.397-4.192 4.192-0.932 6.987-2.329-0.932 1.863-0.466 5.59 2.794 3.261l3.727-3.261c2.329 5.59 6.055 3.261 7.918 2.329 20.495-13.042 40.99-28.413 60.553-43.784l-0.466 6.055 2.329-7.453c2.329 2.329 4.192 0.466 5.124-0.931 2.795-4.658 6.521-9.316 12.577-13.508-7.453 20.029-16.303 35.866-27.482 48.908l-4.658 5.59c0 3.261-0.932 7.453-4.658 7.918-1.863 0.466-5.59-0.932-8.384 1.863-1.397 1.863 3.261 5.59-0.466 2.795-3.261-2.329-6.521 0-10.248 0.932-2.795 0.932 1.863 3.726 2.795 5.589 0.932 1.863 1.863 3.726 1.398 6.056l-5.124-5.59c-6.055 3.261-9.782 9.316-14.906 13.974-2.329 1.863-1.397 5.124-1.397 7.918-3.261 0-6.987-0.932-8.85 0.932-1.397 1.863-0.932 4.658-0.932 7.453-4.658-0.466-5.124-7.453-9.315-6.056-4.192 0.932-8.85 1.397-12.577 3.727 2.795 5.59-4.658 2.329-3.726 3.26-6.987-4.192-13.042-7.453-20.495-4.658-15.837-5.124-35.4-2.795-49.84-0.931 0-2.329 0.466-4.658-0.466-5.124-0.932 2.329-3.726 1.397-3.26 1.397-8.85-6.055-17.7-9.782-27.016-14.905-8.384 0.932-16.303-3.261-18.632-5.59-6.521-6.055-13.974-2.795-20.029-4.192-13.042-3.261-17.7-16.769-19.098-26.084-0.932-4.658-4.658-6.521-6.055-6.056-6.055-19.563-15.371-37.263-22.824-55.429-1.863-4.658-1.397-9.316-1.397-14.44 2.329 0.932 4.658 0.466 4.192-2.794-2.329-15.371-7.918-27.016-13.974-38.195 3.261-15.837 3.726-34.469 11.179-48.443 6.521-12.576 18.632-19.098 27.016-29.811 2.795-3.726 2.795-8.85 5.59-12.11 9.316-9.316 18.632-19.098 28.879-27.482 4.658-3.726 10.247 0 17.234-1.397 2.329-8.384 11.645-15.837 20.495-13.508 3.726 0.932 11.179-8.85 13.508-9.782 3.726-1.397 1.863 3.726 1.863 6.987 8.85-6.987 20.961-10.713 32.14-14.906" fill="#000000" fill-rule="nonzero" stroke="none" stroke-width="1" stroke-linecap="butt" stroke-linejoin="miter" stroke-miterlimit="10" stroke-dasharray="" stroke-dashoffset="0" font-family="none" font-weight="none" font-size="none" text-anchor="none" style="mix-blend-mode: normal" data-fill-palette-color="tertiary"></path></g><g transform="matrix(1,0,0,1,64,171.02594371997253)"><svg viewBox="0 0 192 17.94811256005491" height="17.94811256005491" width="192"><g><svg viewBox="0 0 192 17.94811256005491" height="17.94811256005491" width="192"><g><svg viewBox="0 0 192 17.94811256005491" height="17.94811256005491" width="192"><g id="textblocktransform"><svg viewBox="0 0 192 17.94811256005491" height="17.94811256005491" width="192" id="textblock"><g><svg viewBox="0 0 192 17.94811256005491" height="17.94811256005491" width="192"><g transform="matrix(1,0,0,1,0,0)"><svg width="192" viewBox="0.7 -33.6 364.21000000000004 34.050000000000004" height="17.94811256005491" data-palette-color="#6b7280"><path d="M21.35 0L21.35-0.5 21.6-0.5Q22.8-0.5 22.8-1.6L22.8-1.6Q22.8-2 22.65-2.45L22.65-2.45 18.15-14.6 9.4-14.6 5.05-2.65Q4.9-2.25 4.9-1.9L4.9-1.9Q4.9-1.25 5.25-0.88 5.6-0.5 6-0.5L6-0.5 6.25-0.5 6.25 0 0.7 0 0.7-0.5 0.95-0.5Q1.6-0.5 2.23-1.28 2.85-2.05 3.25-3.1L3.25-3.1 14.7-33.6 25.9-3.4Q26.25-2.4 26.88-1.45 27.5-0.5 28.5-0.5L28.5-0.5 28.75-0.5 28.75 0 21.35 0ZM13.75-26.75L9.9-16.3 17.6-16.3 13.75-26.75ZM48-5.7L48-5.7Q48-4.4 47.35-3.3 46.7-2.2 45.57-1.38 44.45-0.55 42.95-0.08 41.45 0.4 39.7 0.4L39.7 0.4Q37.55 0.4 36.2-0.18 34.85-0.75 33.9-1.35L33.9-1.35Q33.25-1.75 32.7-2.02 32.15-2.3 31.5-2.3L31.5-2.3 31.5-6.1 32-6.1Q32.15-5.4 32.87-4.58 33.6-3.75 34.62-3.05 35.65-2.35 36.87-1.88 38.1-1.4 39.35-1.4L39.35-1.4Q40.25-1.4 41.2-1.6 42.15-1.8 42.92-2.25 43.7-2.7 44.22-3.38 44.75-4.05 44.75-5L44.75-5Q44.75-5.95 44.2-6.65 43.65-7.35 42.8-7.88 41.95-8.4 40.85-8.8 39.75-9.2 38.65-9.55L38.65-9.55Q37.35-9.95 36.02-10.45 34.7-10.95 33.65-11.63 32.6-12.3 31.95-13.28 31.3-14.25 31.3-15.6L31.3-15.6Q31.3-16.75 31.72-17.8 32.15-18.85 33.12-19.63 34.1-20.4 35.65-20.88 37.2-21.35 39.4-21.35L39.4-21.35Q41.35-21.35 42.42-21.03 43.5-20.7 44.2-20.35L44.2-20.35Q44.65-20.1 45.1-19.98 45.55-19.85 46.1-19.85L46.1-19.85 46.1-16.35 45.7-16.35Q44.8-18 42.95-18.85 41.1-19.7 39.15-19.7L39.15-19.7Q37.9-19.7 37-19.38 36.1-19.05 35.52-18.57 34.95-18.1 34.67-17.5 34.4-16.9 34.4-16.3L34.4-16.3Q34.4-15.45 34.87-14.85 35.35-14.25 36.17-13.8 37-13.35 38.02-12.95 39.05-12.55 40.2-12.2L40.2-12.2Q41.6-11.75 43-11.23 44.4-10.7 45.5-9.95 46.6-9.2 47.3-8.18 48-7.15 48-5.7ZM68.55-5.7L68.55-5.7Q68.55-4.4 67.9-3.3 67.25-2.2 66.12-1.38 65-0.55 63.5-0.08 62 0.4 60.25 0.4L60.25 0.4Q58.09 0.4 56.75-0.18 55.4-0.75 54.45-1.35L54.45-1.35Q53.8-1.75 53.25-2.02 52.7-2.3 52.05-2.3L52.05-2.3 52.05-6.1 52.55-6.1Q52.7-5.4 53.42-4.58 54.15-3.75 55.17-3.05 56.2-2.35 57.42-1.88 58.65-1.4 59.9-1.4L59.9-1.4Q60.8-1.4 61.75-1.6 62.7-1.8 63.47-2.25 64.25-2.7 64.77-3.38 65.3-4.05 65.3-5L65.3-5Q65.3-5.95 64.75-6.65 64.2-7.35 63.34-7.88 62.5-8.4 61.4-8.8 60.3-9.2 59.2-9.55L59.2-9.55Q57.9-9.95 56.57-10.45 55.25-10.95 54.2-11.63 53.15-12.3 52.5-13.28 51.84-14.25 51.84-15.6L51.84-15.6Q51.84-16.75 52.27-17.8 52.7-18.85 53.67-19.63 54.65-20.4 56.2-20.88 57.75-21.35 59.95-21.35L59.95-21.35Q61.9-21.35 62.97-21.03 64.05-20.7 64.75-20.35L64.75-20.35Q65.2-20.1 65.65-19.98 66.09-19.85 66.65-19.85L66.65-19.85 66.65-16.35 66.25-16.35Q65.34-18 63.5-18.85 61.65-19.7 59.7-19.7L59.7-19.7Q58.45-19.7 57.55-19.38 56.65-19.05 56.07-18.57 55.5-18.1 55.22-17.5 54.95-16.9 54.95-16.3L54.95-16.3Q54.95-15.45 55.42-14.85 55.9-14.25 56.72-13.8 57.55-13.35 58.57-12.95 59.59-12.55 60.75-12.2L60.75-12.2Q62.15-11.75 63.55-11.23 64.95-10.7 66.05-9.95 67.15-9.2 67.84-8.18 68.55-7.15 68.55-5.7ZM92.64-21.55L92.64-3.25Q92.64-2.9 92.74-2.43 92.84-1.95 93.02-1.53 93.19-1.1 93.49-0.8 93.79-0.5 94.19-0.5L94.19-0.5 94.19 0 89.34 0 89.34-2.75Q88.59-1.65 87.14-0.6 85.69 0.45 83.39 0.45L83.39 0.45Q80.49 0.45 78.79-0.55 77.09-1.55 76.19-3.1 75.29-4.65 75.04-6.48 74.79-8.3 74.79-9.9L74.79-9.9 74.79-17.05Q74.79-17.5 74.77-17.93 74.74-18.35 74.57-18.7 74.39-19.05 74.04-19.28 73.69-19.5 73.04-19.5L73.04-19.5 73.04-19.95 78.09-21.55 78.09-8.8Q78.09-5 79.74-3.2 81.39-1.4 83.79-1.4L83.79-1.4Q85.09-1.4 86.12-1.98 87.14-2.55 87.87-3.35 88.59-4.15 88.97-5 89.34-5.85 89.34-6.4L89.34-6.4 89.34-17.05Q89.34-17.5 89.32-17.93 89.29-18.35 89.12-18.7 88.94-19.05 88.59-19.28 88.24-19.5 87.59-19.5L87.59-19.5 87.59-19.95 92.64-21.55ZM112.74-20.4L111.24-17.35Q110.64-18.35 109.99-18.6 109.34-18.85 108.49-18.85L108.49-18.85Q107.94-18.85 107.32-18.6 106.69-18.35 106.09-17.95 105.49-17.55 104.92-17.07 104.34-16.6 103.94-16.2L103.94-16.2 103.94-3.2Q103.94-2.8 104.04-2.35 104.14-1.9 104.37-1.48 104.59-1.05 104.87-0.78 105.14-0.5 105.54-0.5L105.54-0.5 105.54 0 99.04 0 99.04-0.5Q99.39-0.5 99.69-0.78 99.99-1.05 100.22-1.48 100.44-1.9 100.54-2.35 100.64-2.8 100.64-3.2L100.64-3.2 100.64-17.15Q100.64-17.85 100.19-18.55 99.74-19.25 98.89-19.45L98.89-19.45 98.89-19.85 103.94-21.35 103.94-18.35Q104.39-18.9 104.89-19.43 105.39-19.95 106.02-20.38 106.64-20.8 107.39-21.08 108.14-21.35 109.14-21.35L109.14-21.35Q109.84-21.35 110.94-21.05 112.04-20.75 112.74-20.4L112.74-20.4ZM133.94 0L129.09 0 129.09-2.55 128.84-2.3Q127.59-1.05 125.96-0.35 124.34 0.35 122.04 0.35L122.04 0.35Q120.29 0.35 119.04-0.05 117.79-0.45 116.99-1.18 116.19-1.9 115.81-2.85 115.44-3.8 115.44-4.85L115.44-4.85Q115.44-6.55 116.36-7.85 117.29-9.15 119.04-10.15 120.79-11.15 123.31-11.98 125.84-12.8 129.09-13.6L129.09-13.6Q128.99-15.55 128.29-16.75 127.59-17.95 126.64-18.63 125.69-19.3 124.64-19.53 123.59-19.75 122.84-19.75L122.84-19.75Q121.54-19.75 120.56-19.35 119.59-18.95 118.86-18.32 118.14-17.7 117.64-16.98 117.14-16.25 116.84-15.6L116.84-15.6 116.39-15.6 116.39-19.25Q116.79-19.3 117.14-19.5 117.49-19.7 117.99-19.9L117.99-19.9Q118.74-20.2 120.04-20.78 121.34-21.35 123.69-21.35L123.69-21.35Q126.44-21.35 128.14-20.65 129.84-19.95 130.76-18.8 131.69-17.65 131.99-16.18 132.29-14.7 132.29-13.15L132.29-13.15 132.29-3.25Q132.29-2.25 132.74-1.38 133.19-0.5 133.94-0.5L133.94-0.5 133.94 0ZM128.54-4.15L129.09-4.75 129.09-11.9 128.59-11.8Q127.39-11.5 125.66-11 123.94-10.5 122.39-9.7 120.84-8.9 119.74-7.8 118.64-6.7 118.64-5.25L118.64-5.25Q118.64-3.65 119.94-2.6 121.24-1.55 123.34-1.55L123.34-1.55Q124.99-1.55 126.24-2.27 127.49-3 128.54-4.15L128.54-4.15ZM158.84-12.9L158.84-3.25Q158.84-2.85 158.94-2.38 159.04-1.9 159.26-1.5 159.49-1.1 159.76-0.8 160.04-0.5 160.44-0.5L160.44-0.5 160.44 0 153.99 0 153.99-0.5Q154.34-0.5 154.64-0.8 154.94-1.1 155.16-1.5 155.39-1.9 155.49-2.38 155.59-2.85 155.59-3.25L155.59-3.25 155.59-12.55Q155.59-14.35 155.09-15.7 154.59-17.05 153.74-17.95 152.89-18.85 151.81-19.28 150.74-19.7 149.64-19.7L149.64-19.7Q148.54-19.7 147.46-19.25 146.39-18.8 145.56-18.07 144.74-17.35 144.21-16.38 143.69-15.4 143.69-14.35L143.69-14.35 143.69-3.25Q143.69-2.85 143.79-2.38 143.89-1.9 144.11-1.5 144.34-1.1 144.61-0.8 144.89-0.5 145.29-0.5L145.29-0.5 145.29 0 138.79 0 138.79-0.5Q139.14-0.5 139.44-0.8 139.74-1.1 139.96-1.5 140.19-1.9 140.29-2.38 140.39-2.85 140.39-3.25L140.39-3.25 140.39-17.05Q140.39-17.9 140.14-18.68 139.89-19.45 138.69-19.5L138.69-19.5 138.69-19.95 143.69-21.55 143.69-18.8Q144.04-19.2 144.59-19.68 145.14-20.15 145.91-20.58 146.69-21 147.71-21.28 148.74-21.55 150.14-21.55L150.14-21.55Q152.49-21.55 154.14-20.75 155.79-19.95 156.84-18.68 157.89-17.4 158.36-15.88 158.84-14.35 158.84-12.9L158.84-12.9ZM183.78-5.7L183.78-1.8Q183.38-1.8 183.03-1.63 182.68-1.45 182.23-1.2L182.23-1.2Q181.38-0.7 180.08-0.18 178.78 0.35 176.68 0.35L176.68 0.35Q174.13 0.35 171.96-0.48 169.78-1.3 168.21-2.78 166.63-4.25 165.76-6.23 164.88-8.2 164.88-10.5L164.88-10.5Q164.88-12.65 165.66-14.6 166.43-16.55 167.88-18.05 169.33-19.55 171.46-20.45 173.58-21.35 176.28-21.35L176.28-21.35Q178.13-21.35 179.28-20.93 180.43-20.5 181.23-20.1L181.23-20.1Q181.68-19.85 182.11-19.7 182.53-19.55 182.98-19.55L182.98-19.55 182.98-15.75 182.48-15.75Q182.23-16.7 181.58-17.43 180.93-18.15 180.08-18.65 179.23-19.15 178.23-19.4 177.23-19.65 176.28-19.65L176.28-19.65Q174.23-19.65 172.68-18.93 171.13-18.2 170.13-17.03 169.13-15.85 168.63-14.35 168.13-12.85 168.13-11.25L168.13-11.25Q168.13-9.4 168.73-7.63 169.33-5.85 170.46-4.45 171.58-3.05 173.18-2.2 174.78-1.35 176.78-1.35L176.78-1.35Q178.18-1.35 179.36-1.75 180.53-2.15 181.36-2.8 182.18-3.45 182.68-4.23 183.18-5 183.28-5.7L183.28-5.7 183.78-5.7ZM207.23-10.1L189.88-10.1Q190.08-8.35 190.73-6.78 191.38-5.2 192.46-4 193.53-2.8 195.08-2.08 196.63-1.35 198.68-1.35L198.68-1.35Q199.78-1.35 201.01-1.68 202.23-2 203.28-2.6 204.33-3.2 205.16-4.08 205.98-4.95 206.28-6.05L206.28-6.05 206.73-6.05 206.73-2.3Q206.43-2.3 206.06-2.1 205.68-1.9 205.18-1.6L205.18-1.6Q204.18-1 202.48-0.33 200.78 0.35 197.98 0.35L197.98 0.35Q195.73 0.35 193.71-0.3 191.68-0.95 190.13-2.3 188.58-3.65 187.66-5.75 186.73-7.85 186.73-10.75L186.73-10.75Q186.73-12.6 187.36-14.5 187.98-16.4 189.26-17.93 190.53-19.45 192.53-20.4 194.53-21.35 197.33-21.35L197.33-21.35Q199.83-21.35 201.71-20.5 203.58-19.65 204.81-18.15 206.03-16.65 206.63-14.6 207.23-12.55 207.23-10.1L207.23-10.1ZM197.13-19.7L197.13-19.7Q195.38-19.7 194.11-19 192.83-18.3 191.93-17.2 191.03-16.1 190.53-14.7 190.03-13.3 189.88-11.9L189.88-11.9 204.13-11.9Q204.08-13.35 203.61-14.75 203.13-16.15 202.28-17.25 201.43-18.35 200.13-19.03 198.83-19.7 197.13-19.7ZM224.58-32.5L224.58-33 231.73-33 231.73-32.5 231.48-32.5Q231.13-32.5 230.83-32.23 230.53-31.95 230.33-31.58 230.13-31.2 230-30.73 229.88-30.25 229.88-29.9L229.88-29.9 229.88-3.25Q229.88-2.85 229.98-2.38 230.08-1.9 230.3-1.5 230.53-1.1 230.8-0.8 231.08-0.5 231.48-0.5L231.48-0.5 231.73-0.5 231.73 0 224.58 0 224.58-0.5 224.83-0.5Q225.23-0.5 225.53-0.78 225.83-1.05 226.05-1.48 226.28-1.9 226.38-2.38 226.48-2.85 226.48-3.25L226.48-3.25 226.48-29.9Q226.48-30.25 226.38-30.7 226.28-31.15 226.05-31.55 225.83-31.95 225.53-32.23 225.23-32.5 224.83-32.5L224.83-32.5 224.58-32.5ZM268.52-12.6L268.52-3.25Q268.52-2.85 268.62-2.38 268.72-1.9 268.92-1.5 269.12-1.1 269.4-0.8 269.67-0.5 270.07-0.5L270.07-0.5 270.07 0 263.57 0 263.57-0.5Q263.97-0.5 264.27-0.8 264.57-1.1 264.8-1.5 265.02-1.9 265.12-2.38 265.22-2.85 265.22-3.25L265.22-3.25 265.22-14.05Q265.22-15.2 264.9-16.25 264.57-17.3 263.92-18.07 263.27-18.85 262.32-19.33 261.37-19.8 260.17-19.8L260.17-19.8Q258.82-19.8 257.85-19.18 256.87-18.55 256.25-17.65 255.62-16.75 255.32-15.83 255.02-14.9 255.02-14.3L255.02-14.3 255.02-3.25Q255.02-2.85 255.12-2.38 255.22-1.9 255.45-1.5 255.67-1.1 255.95-0.8 256.22-0.5 256.62-0.5L256.62-0.5 256.62 0 250.17 0 250.17-0.5Q250.52-0.5 250.82-0.8 251.12-1.1 251.35-1.5 251.57-1.9 251.67-2.38 251.77-2.85 251.77-3.25L251.77-3.25 251.77-14.35Q251.77-15.55 251.35-16.57 250.92-17.6 250.2-18.3 249.47-19 248.55-19.4 247.62-19.8 246.67-19.8L246.67-19.8Q245.37-19.8 244.4-19.3 243.42-18.8 242.8-18.05 242.17-17.3 241.85-16.43 241.52-15.55 241.52-14.75L241.52-14.75 241.52-3.25Q241.52-2.85 241.62-2.38 241.72-1.9 241.95-1.5 242.17-1.1 242.45-0.8 242.72-0.5 243.12-0.5L243.12-0.5 243.12 0 236.67 0 236.67-0.5Q237.02-0.5 237.32-0.8 237.62-1.1 237.85-1.5 238.07-1.9 238.17-2.38 238.27-2.85 238.27-3.25L238.27-3.25 238.27-16.6Q238.27-17 238.22-17.5 238.17-18 238.02-18.45 237.87-18.9 237.52-19.2 237.17-19.5 236.57-19.5L236.57-19.5 236.57-19.95 241.52-21.6 241.52-19.05Q242.27-19.9 243.6-20.7 244.92-21.5 247.07-21.5L247.07-21.5Q248.47-21.5 249.57-21.1 250.67-20.7 251.5-20.08 252.32-19.45 252.92-18.65 253.52-17.85 253.92-17.1L253.92-17.1Q254.32-17.85 254.87-18.63 255.42-19.4 256.2-20.05 256.97-20.7 258.05-21.1 259.12-21.5 260.57-21.5L260.57-21.5Q263.37-21.5 264.97-20.5 266.57-19.5 267.35-18.1 268.12-16.7 268.32-15.18 268.52-13.65 268.52-12.6L268.52-12.6ZM282.37 0L275.87 0 275.87-0.5Q276.27-0.5 276.57-0.8 276.87-1.1 277.07-1.5 277.27-1.9 277.37-2.38 277.47-2.85 277.47-3.25L277.47-3.25 277.47-17.1Q277.47-17.95 277.22-18.73 276.97-19.5 275.77-19.55L275.77-19.55 275.77-20 280.77-21.6 280.77-3.25Q280.77-2.85 280.87-2.38 280.97-1.9 281.17-1.5 281.37-1.1 281.67-0.8 281.97-0.5 282.37-0.5L282.37-0.5 282.37 0ZM276.12-26.4L276.12-26.4Q276.12-27.4 276.8-28.1 277.47-28.8 278.47-28.8L278.47-28.8Q279.47-28.8 280.17-28.1 280.87-27.4 280.87-26.4L280.87-26.4Q280.87-25.4 280.17-24.75 279.47-24.1 278.47-24.1L278.47-24.1Q277.47-24.1 276.8-24.75 276.12-25.4 276.12-26.4ZM307.82-12.9L307.82-3.25Q307.82-2.85 307.92-2.38 308.02-1.9 308.24-1.5 308.47-1.1 308.74-0.8 309.02-0.5 309.42-0.5L309.42-0.5 309.42 0 302.97 0 302.97-0.5Q303.32-0.5 303.62-0.8 303.92-1.1 304.14-1.5 304.37-1.9 304.47-2.38 304.57-2.85 304.57-3.25L304.57-3.25 304.57-12.55Q304.57-14.35 304.07-15.7 303.57-17.05 302.72-17.95 301.87-18.85 300.79-19.28 299.72-19.7 298.62-19.7L298.62-19.7Q297.52-19.7 296.44-19.25 295.37-18.8 294.54-18.07 293.72-17.35 293.19-16.38 292.67-15.4 292.67-14.35L292.67-14.35 292.67-3.25Q292.67-2.85 292.77-2.38 292.87-1.9 293.09-1.5 293.32-1.1 293.59-0.8 293.87-0.5 294.27-0.5L294.27-0.5 294.27 0 287.77 0 287.77-0.5Q288.12-0.5 288.42-0.8 288.72-1.1 288.94-1.5 289.17-1.9 289.27-2.38 289.37-2.85 289.37-3.25L289.37-3.25 289.37-17.05Q289.37-17.9 289.12-18.68 288.87-19.45 287.67-19.5L287.67-19.5 287.67-19.95 292.67-21.55 292.67-18.8Q293.02-19.2 293.57-19.68 294.12-20.15 294.89-20.58 295.67-21 296.69-21.28 297.72-21.55 299.12-21.55L299.12-21.55Q301.47-21.55 303.12-20.75 304.77-19.95 305.82-18.68 306.87-17.4 307.34-15.88 307.82-14.35 307.82-12.9L307.82-12.9ZM321.52 0L315.02 0 315.02-0.5Q315.42-0.5 315.72-0.8 316.02-1.1 316.22-1.5 316.42-1.9 316.52-2.38 316.62-2.85 316.62-3.25L316.62-3.25 316.62-17.1Q316.62-17.95 316.37-18.73 316.12-19.5 314.92-19.55L314.92-19.55 314.92-20 319.92-21.6 319.92-3.25Q319.92-2.85 320.02-2.38 320.12-1.9 320.32-1.5 320.52-1.1 320.82-0.8 321.12-0.5 321.52-0.5L321.52-0.5 321.52 0ZM315.27-26.4L315.27-26.4Q315.27-27.4 315.94-28.1 316.62-28.8 317.62-28.8L317.62-28.8Q318.62-28.8 319.32-28.1 320.02-27.4 320.02-26.4L320.02-26.4Q320.02-25.4 319.32-24.75 318.62-24.1 317.62-24.1L317.62-24.1Q316.62-24.1 315.94-24.75 315.27-25.4 315.27-26.4ZM337.16-19.3L331.51-19.3 331.51-3.25Q331.51-2.85 331.61-2.38 331.71-1.9 331.94-1.5 332.16-1.1 332.44-0.8 332.71-0.5 333.11-0.5L333.11-0.5 333.11 0 326.61 0 326.61-0.5Q326.96-0.5 327.26-0.8 327.56-1.1 327.79-1.5 328.01-1.9 328.11-2.38 328.21-2.85 328.21-3.25L328.21-3.25 328.21-19.3 325.71-19.3 325.71-21 328.21-21 328.21-25.05Q328.21-26.6 328.31-28.05 328.41-29.5 328.91-30.65 329.41-31.8 330.44-32.5 331.46-33.2 333.26-33.2L333.26-33.2Q334.26-33.2 334.99-32.98 335.71-32.75 336.24-32.48 336.76-32.2 337.11-31.98 337.46-31.75 337.71-31.75L337.71-31.75 337.71-28.1 337.26-28.1Q337.01-29.55 335.96-30.53 334.91-31.5 333.86-31.5L333.86-31.5Q332.41-31.5 331.96-29.98 331.51-28.45 331.51-25.75L331.51-25.75 331.51-21 337.16-21 337.16-19.3ZM354.56-20.4L353.06-17.35Q352.46-18.35 351.81-18.6 351.16-18.85 350.31-18.85L350.31-18.85Q349.76-18.85 349.14-18.6 348.51-18.35 347.91-17.95 347.31-17.55 346.74-17.07 346.16-16.6 345.76-16.2L345.76-16.2 345.76-3.2Q345.76-2.8 345.86-2.35 345.96-1.9 346.19-1.48 346.41-1.05 346.69-0.78 346.96-0.5 347.36-0.5L347.36-0.5 347.36 0 340.86 0 340.86-0.5Q341.21-0.5 341.51-0.78 341.81-1.05 342.04-1.48 342.26-1.9 342.36-2.35 342.46-2.8 342.46-3.2L342.46-3.2 342.46-17.15Q342.46-17.85 342.01-18.55 341.56-19.25 340.71-19.45L340.71-19.45 340.71-19.85 345.76-21.35 345.76-18.35Q346.21-18.9 346.71-19.43 347.21-19.95 347.84-20.38 348.46-20.8 349.21-21.08 349.96-21.35 350.96-21.35L350.96-21.35Q351.66-21.35 352.76-21.05 353.86-20.75 354.56-20.4L354.56-20.4ZM364.91 0L358.41 0 358.41-0.5Q358.81-0.5 359.11-0.8 359.41-1.1 359.61-1.5 359.81-1.9 359.91-2.38 360.01-2.85 360.01-3.25L360.01-3.25 360.01-17.1Q360.01-17.95 359.76-18.73 359.51-19.5 358.31-19.55L358.31-19.55 358.31-20 363.31-21.6 363.31-3.25Q363.31-2.85 363.41-2.38 363.51-1.9 363.71-1.5 363.91-1.1 364.21-0.8 364.51-0.5 364.91-0.5L364.91-0.5 364.91 0ZM358.66-26.4L358.66-26.4Q358.66-27.4 359.33-28.1 360.01-28.8 361.01-28.8L361.01-28.8Q362.01-28.8 362.71-28.1 363.41-27.4 363.41-26.4L363.41-26.4Q363.41-25.4 362.71-24.75 362.01-24.1 361.01-24.1L361.01-24.1Q360.01-24.1 359.33-24.75 358.66-25.4 358.66-26.4Z" opacity="1" transform="matrix(1,0,0,1,0,0)" fill="#000000" class="wordmark-text-0" data-fill-palette-color="primary" id="text-0"></path></svg></g></svg></g></svg></g></svg></g><g></g></svg></g></svg></g></svg></g><defs></defs></svg><rect width="320" height="360" fill="none" stroke="none" visibility="hidden"></rect></g></svg></g></svg>